<svg width="25" height="36" viewBox="0 0 25 36" fill="none" xmlns="http://www.w3.org/2000/svg">
<path d="M24.0718 10.022L23.8793 9.05069C23.7058 8.17859 23.3135 7.35461 22.4195 7.03961C22.1322 6.93898 21.807 6.89669 21.5883 6.68814C21.3666 6.4796 21.3024 6.15438 21.2514 5.85396C21.1566 5.3027 21.0691 4.75144 20.9714 4.20164C20.8882 3.72767 20.8226 3.19537 20.6068 2.76223C20.3224 2.17889 19.7361 1.83763 19.1542 1.61305C18.8556 1.50138 18.5508 1.40691 18.2413 1.33012C16.783 0.946574 15.2517 0.805113 13.7539 0.723445C11.9554 0.624559 10.1522 0.654776 8.358 0.813863C7.0236 0.934907 5.61628 1.0822 4.34751 1.54304C3.88375 1.71221 3.40541 1.91638 3.05248 2.27368C2.61935 2.71411 2.47935 3.39662 2.79435 3.94496C3.01894 4.33435 3.39957 4.60998 3.80354 4.79081C4.32855 5.02707 4.87835 5.20499 5.44128 5.32457C7.00902 5.67166 8.63363 5.80729 10.2349 5.86417C12.0112 5.93709 13.7889 5.87875 15.5579 5.69208C15.994 5.64395 16.43 5.58562 16.8646 5.51854C17.378 5.43978 17.7076 4.7704 17.5559 4.30226C17.375 3.74371 16.8894 3.52787 16.3396 3.61246C15.66 3.72038 14.9396 3.76996 14.3242 3.82538C12.6077 3.94205 10.8853 3.94496 9.16739 3.83413C8.60369 3.79683 8.04105 3.74479 7.48007 3.67808C7.35465 3.6635 7.21756 3.64163 7.10381 3.62558C6.74943 3.57308 6.39796 3.50891 6.04796 3.436C5.88608 3.39662 5.88608 3.1662 6.04796 3.12682H6.05525C6.45921 3.03932 6.86755 2.96932 7.27735 2.91244H7.28027C7.47132 2.89932 7.66382 2.86578 7.85486 2.84244C9.51437 2.6702 11.1837 2.61173 12.8512 2.66744C13.8341 2.69515 14.8156 2.76515 15.7927 2.87744L16.1252 2.92265C16.5146 2.98099 16.9025 3.05099 17.289 3.13412C17.8607 3.25808 18.5942 3.29891 18.8494 3.92455C18.9297 4.12434 18.9661 4.34456 19.0113 4.5531L19.4765 6.71731C19.4864 6.76371 19.4866 6.81165 19.4772 6.85814C19.4677 6.90463 19.4488 6.94867 19.4215 6.98752C19.3943 7.02637 19.3594 7.05921 19.3189 7.08397C19.2784 7.10874 19.2333 7.12491 19.1863 7.13148H19.182C19.128 7.14023 19.0726 7.14607 19.0186 7.15336C16.7247 7.44603 14.4142 7.58974 12.1016 7.58357C9.81025 7.58121 7.52135 7.43313 5.24877 7.14023C5.0446 7.11544 4.82147 7.07898 4.64064 7.05273C4.16521 6.98273 3.69416 6.89523 3.22165 6.81794C2.64852 6.72314 2.10163 6.77127 1.58391 7.05273C1.16099 7.28607 0.815357 7.64191 0.59952 8.07504C0.374932 8.53588 0.309306 9.03756 0.210138 9.5334C0.109511 10.0292 -0.046534 10.5645 0.0132588 11.0734C0.140136 12.1716 0.907234 13.0641 2.01121 13.2639C7.47054 14.2382 13.0415 14.4228 18.5534 13.8122C18.6581 13.8003 18.7642 13.8121 18.8638 13.8466C18.9633 13.8811 19.0539 13.9375 19.1288 14.0117C19.2036 14.0859 19.2609 14.1759 19.2964 14.2751C19.3318 14.3744 19.3446 14.4803 19.3336 14.5852L19.2301 15.6016L17.7455 30.0496C17.6857 30.6476 17.6769 31.263 17.5632 31.8536C17.3853 32.7826 16.7567 33.3528 15.8394 33.5614C14.9979 33.7524 14.1404 33.853 13.2785 33.8603C12.3218 33.8662 11.3681 33.8239 10.4114 33.8282C9.39198 33.8341 8.14216 33.7407 7.35611 32.9824C6.66338 32.3145 6.56859 31.2703 6.4738 30.3675L5.40774 20.1401L4.93814 15.6279C4.88418 15.116 4.52105 14.6143 3.94938 14.6391C3.45937 14.661 2.90227 15.0766 2.96061 15.6294L3.29311 18.8159L4.6771 32.1045C4.89148 34.0645 6.38921 35.1203 8.24425 35.4179C9.32635 35.5929 10.4362 35.6279 11.5358 35.6454C12.9445 35.6687 14.3679 35.7226 15.7533 35.4674C17.8067 35.0912 19.3482 33.7203 19.5684 31.5926C20.0643 26.7333 20.5645 21.8755 21.0618 17.0163L21.3753 13.9727C21.3908 13.8217 21.4544 13.6798 21.5569 13.5679C21.6593 13.456 21.7951 13.3801 21.9441 13.3514C22.5304 13.2376 23.0918 13.0422 23.5104 12.596C24.1739 11.8843 24.3066 10.9582 24.0718 10.022ZM21.9164 11.1478C21.7049 11.3476 21.387 11.4409 21.0734 11.4876C17.55 12.0112 13.9771 12.2751 10.4157 12.1585C7.86653 12.071 5.34503 11.788 2.82206 11.4322C2.57414 11.3972 2.30726 11.352 2.13663 11.1697C1.81579 10.8255 1.97475 10.1342 2.05788 9.71861C2.13372 9.33944 2.27955 8.83047 2.7331 8.77651C3.43895 8.69339 4.25855 8.99235 4.95856 9.09735C5.80004 9.22569 6.64443 9.32923 7.49173 9.40653C11.1085 9.73612 14.7865 9.68361 18.3886 9.20236C19.0449 9.11485 19.6997 9.01277 20.3501 8.8961C20.932 8.7911 21.5751 8.59568 21.9251 9.19652C22.1672 9.60632 22.1993 10.1547 22.1614 10.617C22.1499 10.8189 22.0617 11.0087 21.9149 11.1478H21.9164ZM12.9343 16.8354C11.6772 17.375 10.251 17.9846 8.40029 17.9846C7.62679 17.9827 6.8571 17.8763 6.11212 17.6681L7.39111 30.7992C7.4859 31.9367 8.43675 32.8118 9.57865 32.8118C9.57865 32.8118 11.3914 32.9066 11.9966 32.9066C12.6485 32.9066 14.6012 32.8118 14.6012 32.8118C15.7431 32.8118 16.6925 31.9367 16.7873 30.7992L18.1582 16.2885C17.5397 16.0649 16.8879 15.9475 16.2302 15.9414C15.0256 15.9414 14.0558 16.3556 12.9343 16.8354Z" fill="#F0BC00"/>
</svg>
