<svg width="35" height="35" viewBox="0 0 35 35" fill="none" xmlns="http://www.w3.org/2000/svg">
<path fill-rule="evenodd" clip-rule="evenodd" d="M17.5 0.205322C7.83125 0.205322 0 8.03657 0 17.7053C0 25.4491 5.00938 31.9897 11.9656 34.3084C12.8406 34.4616 13.1687 33.9366 13.1687 33.4772C13.1687 33.0616 13.1469 31.6834 13.1469 30.2178C8.75 31.0272 7.6125 29.1459 7.2625 28.1616C7.06563 27.6584 6.2125 26.1053 5.46875 25.6897C4.85625 25.3616 3.98125 24.5522 5.44688 24.5303C6.825 24.5084 7.80938 25.7991 8.1375 26.3241C9.7125 28.9709 12.2281 28.2272 13.2344 27.7678C13.3875 26.6303 13.8469 25.8647 14.35 25.4272C10.4563 24.9897 6.3875 23.4803 6.3875 16.7866C6.3875 14.8834 7.06563 13.3084 8.18125 12.0834C8.00625 11.6459 7.39375 9.8522 8.35625 7.44595C8.35625 7.44595 9.82187 6.98657 13.1687 9.2397C14.5688 8.84595 16.0562 8.64907 17.5438 8.64907C19.0312 8.64907 20.5188 8.84595 21.9188 9.2397C25.2656 6.9647 26.7313 7.44595 26.7313 7.44595C27.6938 9.8522 27.0813 11.6459 26.9063 12.0834C28.0219 13.3084 28.7 14.8616 28.7 16.7866C28.7 23.5022 24.6094 24.9897 20.7156 25.4272C21.35 25.9741 21.8969 27.0241 21.8969 28.6647C21.8969 31.0053 21.875 32.8866 21.875 33.4772C21.875 33.9366 22.2031 34.4834 23.0781 34.3084C26.5521 33.1355 29.5709 30.9028 31.7095 27.9244C33.8481 24.946 34.999 21.372 35 17.7053C35 8.03657 27.1688 0.205322 17.5 0.205322Z" fill="#F8F8F8"/>
</svg>
