<svg width="35" height="36" viewBox="0 0 35 36" fill="none" xmlns="http://www.w3.org/2000/svg">
<path d="M17.5 0.0683594C12.7509 0.0683594 12.1538 0.0902344 10.2878 0.173359C8.42188 0.260859 7.15094 0.553984 6.0375 0.987109C4.86903 1.42532 3.81093 2.11454 2.93781 3.00617C2.04618 3.87929 1.35696 4.93739 0.91875 6.10586C0.485625 7.21711 0.190313 8.49023 0.105 10.3496C0.021875 12.2199 0 12.8149 0 17.5705C0 22.3218 0.021875 22.9168 0.105 24.7827C0.1925 26.6465 0.485625 27.9174 0.91875 29.0309C1.36719 30.1815 1.96438 31.1571 2.93781 32.1305C3.90906 33.104 4.88469 33.7034 6.03531 34.1496C7.15094 34.5827 8.41969 34.878 10.2834 34.9634C12.1516 35.0465 12.7466 35.0684 17.5 35.0684C22.2534 35.0684 22.8463 35.0465 24.7144 34.9634C26.5759 34.8759 27.8512 34.5827 28.9647 34.1496C30.1324 33.7111 31.1897 33.0219 32.0622 32.1305C33.0356 31.1571 33.6328 30.1815 34.0812 29.0309C34.5122 27.9174 34.8075 26.6465 34.895 24.7827C34.9781 22.9168 35 22.3218 35 17.5684C35 12.8149 34.9781 12.2199 34.895 10.3518C34.8075 8.49023 34.5122 7.21711 34.0812 6.10586C33.643 4.93739 32.9538 3.87929 32.0622 3.00617C31.1891 2.11454 30.131 1.42532 28.9625 0.987109C27.8469 0.553984 26.5737 0.258672 24.7122 0.173359C22.8441 0.0902344 22.2513 0.0683594 17.4956 0.0683594H17.5ZM15.9316 3.22273H17.5022C22.1747 3.22273 22.7281 3.23805 24.5722 3.32336C26.2784 3.39992 27.2059 3.68648 27.8228 3.92492C28.6388 4.24211 29.2228 4.62273 29.8353 5.23523C30.4478 5.84773 30.8263 6.42961 31.1434 7.24773C31.3841 7.86242 31.6684 8.78992 31.745 10.4962C31.8303 12.3402 31.8478 12.8937 31.8478 17.564C31.8478 22.2343 31.8303 22.7899 31.745 24.634C31.6684 26.3402 31.3819 27.2655 31.1434 27.8824C30.8609 28.6413 30.4133 29.3279 29.8331 29.8927C29.2206 30.5052 28.6388 30.8837 27.8206 31.2009C27.2081 31.4415 26.2806 31.7259 24.5722 31.8046C22.7281 31.8877 22.1747 31.9074 17.5022 31.9074C12.8297 31.9074 12.2741 31.8877 10.43 31.8046C8.72375 31.7259 7.79844 31.4415 7.18156 31.2009C6.42213 30.9192 5.73475 30.4724 5.16906 29.8927C4.58779 29.3275 4.13947 28.6401 3.85656 27.8802C3.61812 27.2655 3.33156 26.338 3.255 24.6318C3.17188 22.7877 3.15438 22.2343 3.15438 17.5596C3.15438 12.8849 3.17188 12.3359 3.255 10.4918C3.33375 8.78555 3.61813 7.85805 3.85875 7.24117C4.17594 6.42523 4.55656 5.84117 5.16906 5.22867C5.78156 4.61617 6.36344 4.23773 7.18156 3.92055C7.79844 3.67992 8.72375 3.39555 10.43 3.3168C12.0444 3.24242 12.67 3.22055 15.9316 3.21836V3.22273ZM26.8428 6.12773C26.567 6.12773 26.294 6.18205 26.0392 6.28759C25.7844 6.39312 25.5529 6.54781 25.3579 6.74281C25.1629 6.93781 25.0082 7.16932 24.9027 7.4241C24.7971 7.67888 24.7428 7.95196 24.7428 8.22773C24.7428 8.50351 24.7971 8.77659 24.9027 9.03137C25.0082 9.28615 25.1629 9.51766 25.3579 9.71266C25.5529 9.90766 25.7844 10.0623 26.0392 10.1679C26.294 10.2734 26.567 10.3277 26.8428 10.3277C27.3998 10.3277 27.9339 10.1065 28.3277 9.71266C28.7216 9.31883 28.9428 8.78469 28.9428 8.22773C28.9428 7.67078 28.7216 7.13664 28.3277 6.74281C27.9339 6.34898 27.3998 6.12773 26.8428 6.12773ZM17.5022 8.58211C16.3102 8.56351 15.1263 8.78223 14.0196 9.22554C12.9129 9.66885 11.9055 10.3279 11.056 11.1643C10.2064 12.0007 9.53173 12.9977 9.07121 14.0974C8.6107 15.197 8.37353 16.3773 8.37353 17.5695C8.37353 18.7616 8.6107 19.9419 9.07121 21.0415C9.53173 22.1412 10.2064 23.1382 11.056 23.9746C11.9055 24.811 12.9129 25.4701 14.0196 25.9134C15.1263 26.3567 16.3102 26.5754 17.5022 26.5568C19.8615 26.52 22.1117 25.5569 23.7671 23.8755C25.4226 22.194 26.3504 19.929 26.3504 17.5695C26.3504 15.2099 25.4226 12.9449 23.7671 11.2634C22.1117 9.58199 19.8615 8.61892 17.5022 8.58211ZM17.5022 11.7343C18.2683 11.7343 19.027 11.8852 19.7348 12.1784C20.4426 12.4716 21.0858 12.9013 21.6275 13.4431C22.1692 13.9848 22.599 14.6279 22.8922 15.3358C23.1853 16.0436 23.3363 16.8022 23.3363 17.5684C23.3363 18.3345 23.1853 19.0931 22.8922 19.801C22.599 20.5088 22.1692 21.1519 21.6275 21.6937C21.0858 22.2354 20.4426 22.6651 19.7348 22.9583C19.027 23.2515 18.2683 23.4024 17.5022 23.4024C15.9549 23.4024 14.471 22.7878 13.3769 21.6937C12.2828 20.5996 11.6681 19.1156 11.6681 17.5684C11.6681 16.0211 12.2828 14.5372 13.3769 13.4431C14.471 12.349 15.9549 11.7343 17.5022 11.7343Z" fill="#F8F8F8"/>
</svg>
