<svg width="35" height="36" viewBox="0 0 35 36" fill="none" xmlns="http://www.w3.org/2000/svg">
<path d="M31.1111 0.0686035C32.1425 0.0686035 33.1317 0.478324 33.861 1.20763C34.5903 1.93694 35 2.92609 35 3.95749V31.1797C35 32.2111 34.5903 33.2003 33.861 33.9296C33.1317 34.6589 32.1425 35.0686 31.1111 35.0686H3.88889C2.85749 35.0686 1.86834 34.6589 1.13903 33.9296C0.409721 33.2003 0 32.2111 0 31.1797V3.95749C0 2.92609 0.409721 1.93694 1.13903 1.20763C1.86834 0.478324 2.85749 0.0686035 3.88889 0.0686035H31.1111ZM30.1389 30.2075V19.9019C30.1389 18.2208 29.471 16.6084 28.2823 15.4197C27.0935 14.2309 25.4812 13.563 23.8 13.563C22.1472 13.563 20.2222 14.5742 19.2889 16.0908V13.9325H13.8639V30.2075H19.2889V20.6214C19.2889 19.1242 20.4944 17.8992 21.9917 17.8992C22.7136 17.8992 23.4061 18.186 23.9166 18.6965C24.4271 19.207 24.7139 19.8994 24.7139 20.6214V30.2075H30.1389ZM7.54444 10.8797C8.41082 10.8797 9.24171 10.5355 9.85433 9.92293C10.4669 9.31031 10.8111 8.47942 10.8111 7.61305C10.8111 5.80471 9.35278 4.32694 7.54444 4.32694C6.67291 4.32694 5.83708 4.67315 5.22081 5.28942C4.60455 5.90568 4.25833 6.74152 4.25833 7.61305C4.25833 9.42138 5.73611 10.8797 7.54444 10.8797ZM10.2472 30.2075V13.9325H4.86111V30.2075H10.2472Z" fill="#F8F8F8"/>
</svg>
