<svg width="35" height="29" viewBox="0 0 35 29" fill="none" xmlns="http://www.w3.org/2000/svg">
<path d="M35 3.85378C33.7129 4.42411 32.3302 4.80947 30.8766 4.98365C32.3765 4.08621 33.4986 2.67375 34.0335 1.00982C32.6244 1.8468 31.0822 2.43595 29.4739 2.75165C28.3924 1.5969 26.9599 0.831511 25.3989 0.574317C23.8378 0.317124 22.2355 0.582514 20.8407 1.32928C19.4459 2.07605 18.3367 3.26242 17.6852 4.7042C17.0338 6.14597 16.8765 7.76249 17.238 9.30278C14.3827 9.15942 11.5895 8.41729 9.03967 7.12457C6.48981 5.83185 4.24026 4.01742 2.43702 1.79903C1.82044 2.86263 1.46591 4.09578 1.46591 5.40909C1.46522 6.59137 1.75637 7.75554 2.31352 8.79831C2.87067 9.84108 3.67659 10.7302 4.65978 11.3868C3.51954 11.3505 2.40446 11.0424 1.40734 10.4881V10.5806C1.40722 12.2388 1.9808 13.846 3.03076 15.1294C4.08071 16.4129 5.54237 17.2935 7.16771 17.6219C6.10995 17.9082 5.00096 17.9504 3.92451 17.7453C4.38309 19.172 5.27635 20.4197 6.47925 21.3136C7.68215 22.2075 9.13446 22.7028 10.6329 22.7303C8.08924 24.7271 4.94786 25.8102 1.71408 25.8055C1.14126 25.8056 0.56891 25.7722 0 25.7053C3.28247 27.8158 7.10349 28.9359 11.0059 28.9315C24.2161 28.9315 31.4377 17.9903 31.4377 8.50123C31.4377 8.19294 31.43 7.88157 31.4161 7.57328C32.8209 6.55743 34.0334 5.29949 34.9969 3.8584L35 3.85378Z" fill="#F8F8F8"/>
</svg>
